<svg width="71" height="52" viewBox="0 0 71 52" fill="none" xmlns="http://www.w3.org/2000/svg">
<path d="M13.7109 46H3.13477V14.3008H13.7109V46ZM2.54883 6.27344C2.54883 4.71094 3.08594 3.44141 4.16016 2.46484C5.23438 1.48828 6.63086 1 8.34961 1C10.0879 1 11.4844 1.48828 12.5391 2.46484C13.6133 3.44141 14.1504 4.71094 14.1504 6.27344C14.1504 7.81641 13.6133 9.08594 12.5391 10.082C11.4844 11.0586 10.0879 11.5469 8.34961 11.5469C6.63086 11.5469 5.23438 11.0586 4.16016 10.082C3.08594 9.08594 2.54883 7.81641 2.54883 6.27344Z" fill="#F0663A"/>
<path d="M33.0762 38.0898C33.9355 38.0898 34.6582 37.9434 35.2441 37.6504C35.8301 37.3574 36.2598 36.9375 36.5332 36.3906C36.8262 35.8242 36.9629 35.1504 36.9434 34.3691H46.8164C46.8555 36.8496 46.2793 39.0078 45.0879 40.8438C43.916 42.6602 42.3047 44.0762 40.2539 45.0918C38.2227 46.0879 35.9082 46.5859 33.3105 46.5859C29.9707 46.5859 27.1875 45.8828 24.9609 44.4766C22.7539 43.0703 21.0938 41.1562 19.9805 38.7344C18.8672 36.293 18.3105 33.5293 18.3105 30.4434V29.8867C18.3105 26.8008 18.8574 24.0371 19.9512 21.5957C21.0645 19.1543 22.7246 17.2305 24.9316 15.8242C27.1582 14.418 29.9316 13.7148 33.252 13.7148C35.9473 13.7148 38.3105 14.2227 40.3418 15.2383C42.3926 16.2344 43.9941 17.6992 45.1465 19.6328C46.2988 21.5664 46.8555 23.9297 46.8164 26.7227H36.9434C36.9629 25.9023 36.8359 25.1504 36.5625 24.4668C36.3086 23.7832 35.8887 23.2363 35.3027 22.8262C34.7168 22.416 33.9453 22.2109 32.9883 22.2109C31.7578 22.2109 30.8496 22.5625 30.2637 23.2656C29.6777 23.9492 29.2969 24.877 29.1211 26.0488C28.9453 27.2012 28.8574 28.4805 28.8574 29.8867V30.4434C28.8574 31.8887 28.9355 33.1875 29.0918 34.3398C29.2676 35.4922 29.6582 36.4102 30.2637 37.0938C30.8691 37.7578 31.8066 38.0898 33.0762 38.0898Z" fill="#E18669"/>
<path d="M52.9102 46V11.957C52.9102 8.20703 54.0332 5.3457 56.2793 3.37305C58.5254 1.38086 61.5527 0.384766 65.3613 0.384766C66.2402 0.384766 67.0703 0.453125 67.8516 0.589844C68.6328 0.707031 69.3848 0.853516 70.1074 1.0293L70.166 9.11523C69.834 9.01758 69.4824 8.94922 69.1113 8.91016C68.7402 8.87109 68.3008 8.85156 67.793 8.85156C66.4258 8.85156 65.3711 9.125 64.6289 9.67188C63.8867 10.1992 63.5156 10.9609 63.5156 11.957V46H52.9102ZM69.4922 21.918H48.3984V14.3008H69.4922V21.918Z" fill="#E1BCB0"/>
</svg>
