<svg width="50" height="50" viewBox="0 0 50 50" fill="none" xmlns="http://www.w3.org/2000/svg">
<path d="M24.64 49.2844C38.2483 49.2844 49.28 38.2527 49.28 24.6444C49.28 11.0361 38.2483 0.00439453 24.64 0.00439453C11.0317 0.00439453 0 11.0361 0 24.6444C0 38.2527 11.0317 49.2844 24.64 49.2844Z" fill="#E18669"/>
<path d="M34.2313 31.7676L35.3228 24.6435H28.4897V20.0211C28.4897 18.0737 29.4426 16.1714 32.5057 16.1714H35.6139V10.1076C35.6139 10.1076 32.7933 9.62592 30.0975 9.62592C24.4702 9.62592 20.7904 13.0355 20.7904 19.2137V24.6435H14.5325V31.7676H20.7904V48.9855C22.0447 49.183 23.3302 49.2835 24.64 49.2835C25.9498 49.2835 27.2354 49.1795 28.4897 48.9855V31.7676H34.2313Z" fill="white"/>
</svg>
