<svg width="50" height="50" viewBox="0 0 50 50" fill="none" xmlns="http://www.w3.org/2000/svg">
<path d="M0 25C0 18.0989 2.4414 12.207 7.32426 7.32421C12.207 2.4414 18.0989 0 25 0C31.901 0 37.7929 2.4414 42.6758 7.32421C47.5585 12.207 50 18.0989 50 25C50 31.901 47.5586 37.7929 42.6758 42.6757C37.793 47.5585 31.9011 50 25 50C18.0989 50 12.207 47.5586 7.32426 42.6757C2.4414 37.793 0 31.901 0 25ZM2.73437 25C2.73437 31.1198 4.91536 36.3606 9.27733 40.7227C13.6393 45.0846 18.8802 47.2656 25 47.2656C31.1198 47.2656 36.3607 45.0846 40.7227 40.7227C45.0846 36.3607 47.2656 31.1198 47.2656 25C47.2656 18.8802 45.0847 13.6393 40.7227 9.27733C36.3607 4.91536 31.1198 2.73437 25 2.73437C18.8802 2.73437 13.6394 4.91536 9.27733 9.27733C4.91536 13.6393 2.73437 18.8802 2.73437 25ZM9.76566 30.3711C9.63546 30.2409 9.63546 30.1106 9.76566 29.9804C10.026 29.72 10.3516 29.6224 10.7422 29.6875C11.1328 29.7526 11.3607 29.8177 11.4258 29.8828C11.8815 30.0781 12.3861 30.5175 12.9394 31.2012C13.4927 31.8848 13.9322 32.3567 14.2578 32.6172C15.8203 33.9192 17.4153 34.0169 19.0429 32.9101C19.1731 32.4544 19.3847 32.0638 19.6776 31.7382C19.9706 31.4127 20.2473 31.1849 20.5077 31.0546C20.7682 30.9244 21.2239 30.7291 21.875 30.4687C19.7265 30.2734 17.985 29.899 16.6503 29.3456C15.3157 28.7922 14.2577 28.0924 13.4765 27.246C12.4348 26.0741 11.8 24.5442 11.5722 22.6562C11.3443 20.7682 11.4908 19.0429 12.0117 17.4804C12.4023 16.5038 12.9557 15.625 13.6718 14.8437C13.1509 13.2161 13.2486 11.3606 13.9647 9.27728C16.0481 9.40749 17.9361 10.1236 19.6288 11.4257C22.884 10.5794 26.2694 10.5468 29.785 11.3281C30.2407 11.0025 30.9406 10.5957 31.8846 10.1073C32.8286 9.61906 34.0167 9.34234 35.449 9.27723C35.7094 9.99338 35.8885 10.8397 35.9862 11.8163C36.0838 12.7929 36.035 13.7043 35.8397 14.5507C37.3371 16.1132 38.1183 18.1965 38.1834 20.8007C38.1834 22.884 37.8254 24.6092 37.1092 25.9764C36.3931 27.3436 35.1236 28.4829 33.3006 29.3943C32.0637 29.9803 30.4361 30.3384 28.4178 30.4686C29.3293 30.9243 29.9966 31.3963 30.4198 31.8846C30.843 32.3729 31.1197 33.1378 31.25 34.1795V37.2557L31.3476 40.2342C31.5429 40.5598 31.7708 40.8365 32.0312 41.0644C32.2916 41.2923 32.5195 41.455 32.7148 41.5527C32.9101 41.6503 32.9752 41.7968 32.9101 41.9921C32.845 42.1875 32.5846 42.2851 32.1289 42.2851C31.0221 42.2851 30.1432 41.8945 29.4922 41.1132C29.2968 40.7877 29.1992 40.3971 29.1992 39.9413V35.2538C29.1992 34.733 29.069 34.3586 28.8086 34.1308C28.5481 33.9028 28.2877 33.7564 28.0273 33.6913V39.8436C28.0273 40.9504 28.1575 41.6665 28.4179 41.992C28.6784 42.3176 28.8411 42.6431 28.9063 42.9686C28.9714 43.0337 28.9225 43.0825 28.7598 43.1151C28.5971 43.1476 28.3203 43.0988 27.9297 42.9686C27.0833 42.7733 26.4974 42.3338 26.1718 41.6502C25.8463 40.9666 25.6836 40.2342 25.6836 39.4529V33.3984H24.414V39.4531C24.414 40.2343 24.2512 40.9831 23.9257 41.6992C23.47 42.6107 22.6236 43.0989 21.3867 43.164C21.1914 43.0989 21.0937 43.0338 21.0937 42.9688C21.1588 42.9036 21.3541 42.5781 21.6797 41.9922C21.7448 41.862 21.8262 41.6016 21.9238 41.2109C22.0215 40.8203 22.0703 40.3646 22.0703 39.8438V33.6914C21.8099 33.7565 21.5658 33.9029 21.3379 34.1308C21.11 34.3588 20.9961 34.7331 20.9961 35.2539V39.9414C20.9961 40.3971 20.8984 40.7878 20.7031 41.1133C20.1172 41.8945 19.2383 42.2852 18.0664 42.2852C17.6107 42.2852 17.3503 42.1876 17.2852 41.9922C17.22 41.862 17.2363 41.7481 17.334 41.6504C17.4317 41.5528 17.5782 41.4388 17.7735 41.3086C17.9688 41.1784 18.099 41.0807 18.1641 41.0156C18.4246 40.8203 18.6198 40.5599 18.7501 40.2344C18.9454 39.974 18.9942 39.2904 18.8965 38.1836C18.7989 37.0768 18.7826 36.3607 18.8477 36.0352C17.1549 36.6211 15.4297 36.3281 13.6719 35.1563C13.151 34.6354 12.6302 33.8867 12.1094 32.9102C11.7187 32.194 10.9375 31.3476 9.76566 30.3711V30.3711Z" fill="#E18669"/>
</svg>
