<svg width="50" height="50" viewBox="0 0 50 50" fill="none" xmlns="http://www.w3.org/2000/svg">
<path d="M17.1499 24.64C17.1499 20.1041 20.826 16.426 25.3619 16.426C29.8979 16.426 33.5759 20.1041 33.5759 24.64C33.5759 29.1759 29.8979 32.854 25.3619 32.854C20.826 32.854 17.1499 29.1759 17.1499 24.64ZM12.7096 24.64C12.7096 31.6279 18.374 37.2923 25.3619 37.2923C32.3498 37.2923 38.0143 31.6279 38.0143 24.64C38.0143 17.6521 32.3498 11.9877 25.3619 11.9877C18.374 11.9877 12.7096 17.6521 12.7096 24.64ZM35.5584 11.486C35.5581 12.0708 35.7313 12.6425 36.056 13.1289C36.3807 13.6153 36.8423 13.9944 37.3825 14.2184C37.9227 14.4425 38.5172 14.5012 39.0908 14.3874C39.6644 14.2735 40.1914 13.9921 40.6051 13.5788C41.0188 13.1654 41.3006 12.6387 41.4149 12.0652C41.5292 11.4917 41.4709 10.8971 41.2473 10.3567C41.0238 9.81637 40.645 9.35443 40.1588 9.02934C39.6727 8.70424 39.1011 8.5306 38.5163 8.53037H38.5152C37.7313 8.53073 36.9796 8.84221 36.4252 9.39638C35.8708 9.95055 35.559 10.7021 35.5584 11.486ZM15.4074 44.6964C13.0051 44.587 11.6993 44.1868 10.8316 43.8488C9.68123 43.4009 8.86042 42.8675 7.99743 42.0057C7.13443 41.1439 6.60024 40.3239 6.15435 39.1735C5.8161 38.3061 5.41594 37 5.30674 34.5977C5.18728 32.0005 5.16343 31.2203 5.16343 24.6402C5.16343 18.0601 5.18925 17.2821 5.30674 14.6827C5.41614 12.2804 5.81925 10.9768 6.15435 10.1069C6.60221 8.95654 7.13562 8.13573 7.99743 7.27274C8.85923 6.40975 9.67925 5.87556 10.8316 5.42967C11.6989 5.09141 13.0051 4.69126 15.4074 4.58205C18.0046 4.4626 18.7848 4.43875 25.3619 4.43875C31.939 4.43875 32.72 4.46457 35.3194 4.58205C37.7217 4.69146 39.0253 5.09457 39.8952 5.42967C41.0456 5.87556 41.8664 6.41093 42.7294 7.27274C43.5924 8.13455 44.1246 8.95654 44.5725 10.1069C44.9107 10.9743 45.3109 12.2804 45.4201 14.6827C45.5395 17.2821 45.5634 18.0601 45.5634 24.6402C45.5634 31.2203 45.5395 31.9983 45.4201 34.5977C45.3107 37 44.9085 38.3057 44.5725 39.1735C44.1246 40.3239 43.5912 41.1447 42.7294 42.0057C41.8676 42.8667 41.0456 43.4009 39.8952 43.8488C39.0279 44.187 37.7217 44.5872 35.3194 44.6964C32.7222 44.8158 31.942 44.8397 25.3619 44.8397C18.7819 44.8397 18.0038 44.8158 15.4074 44.6964ZM15.2033 0.14922C12.5803 0.268675 10.7879 0.684598 9.22253 1.2937C7.60141 1.92271 6.22906 2.76658 4.8577 4.13577C3.48633 5.50497 2.64463 6.87949 2.01562 8.5006C1.40652 10.0669 0.990598 11.8583 0.871144 14.4814C0.749718 17.1086 0.721924 17.9486 0.721924 24.64C0.721924 31.3314 0.749718 32.1714 0.871144 34.7986C0.990598 37.4219 1.40652 39.2131 2.01562 40.7794C2.64463 42.3995 3.48653 43.7756 4.8577 45.1442C6.22887 46.5128 7.60141 47.3555 9.22253 47.9863C10.7908 48.5954 12.5803 49.0113 15.2033 49.1308C17.8319 49.2502 18.6705 49.28 25.3619 49.28C32.0534 49.28 32.8933 49.2522 35.5205 49.1308C38.1438 49.0113 39.935 48.5954 41.5013 47.9863C43.1215 47.3555 44.4948 46.5134 45.8661 45.1442C47.2375 43.775 48.0774 42.3995 48.7082 40.7794C49.3173 39.2131 49.7352 37.4217 49.8527 34.7986C49.9722 32.1694 50 31.3314 50 24.64C50 17.9486 49.9722 17.1086 49.8527 14.4814C49.7332 11.8581 49.3173 10.0659 48.7082 8.5006C48.0774 6.88047 47.2353 5.50714 45.8661 4.13577C44.497 2.76441 43.1215 1.92271 41.5033 1.2937C39.935 0.684598 38.1436 0.266703 35.5225 0.14922C32.8953 0.0297651 32.0553 0 25.3639 0C18.6725 0 17.8319 0.0277939 15.2033 0.14922Z" fill="url(#paint0_radial)"/>
<defs>
<radialGradient id="paint0_radial" cx="0" cy="0" r="1" gradientUnits="userSpaceOnUse" gradientTransform="translate(30.6081 51.7205) scale(50.7016)">
<stop offset="0.64" stop-color="#E18669"/>
<stop offset="1" stop-color="#F0663A"/>
</radialGradient>
</defs>
</svg>
