<svg width="50" height="50" viewBox="0 0 50 50" fill="none" xmlns="http://www.w3.org/2000/svg">
<path d="M0 3.58164C0 1.60469 1.65508 0 3.69531 0H46.3047C48.3457 0 50 1.60469 50 3.58164V46.4189C50 48.3965 48.3457 50 46.3047 50H3.69531C1.65527 50 0 48.3967 0 46.4195V3.58105V3.58164Z" fill="#E18669"/>
<path d="M15.1945 41.8434V19.3332H7.7125V41.8434H15.1953H15.1945ZM11.4551 16.2603C14.0637 16.2603 15.6877 14.5318 15.6877 12.3717C15.6389 10.1623 14.0637 8.48203 11.5047 8.48203C8.94395 8.48203 7.27148 10.1623 7.27148 12.3715C7.27148 14.5316 8.89492 16.2601 11.4061 16.2601H11.4545L11.4551 16.2603ZM19.3359 41.8434H26.8174V29.274C26.8174 28.6021 26.8662 27.9285 27.0639 27.4486C27.6045 26.1039 28.8355 24.7119 30.9029 24.7119C33.6096 24.7119 34.693 26.776 34.693 29.8023V41.8434H42.1742V28.9367C42.1742 22.0228 38.4836 18.8055 33.5611 18.8055C29.5254 18.8055 27.7529 21.0611 26.7682 22.5975H26.818V19.334H19.3363C19.434 21.4457 19.3357 41.8441 19.3357 41.8441L19.3359 41.8434Z" fill="white"/>
</svg>
